<?xml version="1.0" encoding="UTF-8" standalone="no"?><!DOCTYPE svg PUBLIC "-//W3C//DTD SVG 1.1//EN" "http://www.w3.org/Graphics/SVG/1.1/DTD/svg11.dtd"><svg width="100%" height="100%" viewBox="0 0 169 169" version="1.1" xmlns="http://www.w3.org/2000/svg" xmlns:xlink="http://www.w3.org/1999/xlink" xml:space="preserve" xmlns:serif="http://www.serif.com/" style="fill-rule:evenodd;clip-rule:evenodd;stroke-linejoin:round;stroke-miterlimit:2;"><rect id="Artboard1" x="0" y="0" width="169" height="169" style="fill:none;"/><clipPath id="_clip1"><rect x="0" y="0" width="169" height="169"/></clipPath><g clip-path="url(#_clip1)"><g id="Group_1362"><g id="accept"><path id="Path_2475" d="M59.338,34.551l-27.791,0c-2.629,0 -4.695,2.253 -4.507,4.695c0,2.441 2.066,4.506 4.507,4.506l27.979,0c2.628,0 4.694,-2.065 4.694,-4.506c0,-2.629 -2.066,-4.695 -4.882,-4.695c0.188,0 0.188,0 0,0Z" style="fill:#365dfd;fill-rule:nonzero;"/><path id="Path_2476" d="M59.338,53.329l-27.791,0c-2.629,0 -4.695,2.253 -4.507,4.694c0,2.441 2.066,4.507 4.507,4.507l27.979,0c2.628,0 4.694,-2.066 4.694,-4.507c0,-2.629 -2.066,-4.694 -4.882,-4.694c0.188,0 0.188,0 0,0Z" style="fill:#365dfd;fill-rule:nonzero;"/><path id="Path_2477" d="M59.338,71.919l-27.791,0c-2.629,0 -4.695,2.253 -4.507,4.694c0,2.441 2.066,4.507 4.507,4.507l27.979,0c2.628,0 4.694,-2.066 4.694,-4.507c0,-2.441 -2.066,-4.694 -4.882,-4.694c0.188,0 0.188,0 0,0Z" style="fill:#365dfd;fill-rule:nonzero;"/><path id="Path_2478" d="M59.338,90.697l-27.791,0c-2.629,0 -4.695,2.253 -4.507,4.694c0,2.441 2.066,4.507 4.507,4.507l27.979,0c2.628,0 4.694,-2.254 4.506,-4.695c-0.188,-2.441 -2.065,-4.506 -4.694,-4.506Z" style="fill:#365dfd;fill-rule:nonzero;"/><path id="Path_2479" d="M59.338,109.662l-27.791,0c-2.629,0 -4.695,2.254 -4.507,4.695c0,2.441 2.066,4.506 4.507,4.506l27.979,0c2.628,0 4.694,-2.065 4.694,-4.506c0,-2.441 -2.066,-4.695 -4.882,-4.695c0.188,0 0.188,0 0,0Z" style="fill:#365dfd;fill-rule:nonzero;"/><path id="Path_2480" d="M75.111,43.94l27.979,0c2.629,0 4.694,-2.066 4.694,-4.507c0,-2.629 -2.065,-4.694 -4.506,-4.694l-0.188,0l-27.979,0c-2.629,0 -4.694,2.253 -4.507,4.694c0,2.441 2.066,4.319 4.507,4.507Z" style="fill:#365dfd;fill-rule:nonzero;"/><path id="Path_2481" d="M75.111,62.53l27.979,0c2.629,0 4.694,-2.066 4.694,-4.507c0,-2.441 -2.065,-4.694 -4.506,-4.694l-0.188,0l-27.979,0c-2.629,0 -4.694,2.253 -4.507,4.694c0,2.441 2.066,4.507 4.507,4.507Z" style="fill:#365dfd;fill-rule:nonzero;"/><path id="Path_2482" d="M93.138,76.613c0,-2.629 -2.066,-4.694 -4.695,-4.694l-13.332,0c-2.629,0 -4.694,2.253 -4.507,4.694c0,2.441 2.066,4.507 4.507,4.507l13.52,0c2.441,0.188 4.507,-1.878 4.507,-4.507l0,0Z" style="fill:#365dfd;fill-rule:nonzero;"/><path id="Path_2483" d="M137.453,111.728c-2.065,-1.69 -4.882,-1.315 -6.572,0.751l-12.018,15.022l-7.511,-5.445c-2.065,-1.503 -5.07,-1.127 -6.572,0.938c-1.502,2.066 -1.127,5.07 0.939,6.573c0,0 0.188,0 0.188,0.187l11.079,8.075c2.065,1.502 4.882,1.127 6.384,-0.939l14.834,-18.59c1.69,-2.066 1.315,-5.07 -0.751,-6.572l0,0Z" style="fill:#365dfd;fill-rule:nonzero;"/><path id="Path_2484" d="M149.283,97.269c-6.009,-6.197 -13.895,-10.14 -22.345,-11.267l0,-63.469c0,-10.327 -8.45,-18.777 -18.778,-18.777l-81.871,0c-10.328,0 -18.778,8.45 -18.778,18.777l0,108.348c0,10.328 8.45,18.778 18.778,18.778l65.722,0c7.323,8.638 18.215,13.708 29.481,13.708c21.407,0 38.87,-17.464 38.87,-38.87c0.188,-10.14 -3.943,-19.905 -11.079,-27.228Zm-132.383,33.8l0,-108.536c0,-5.257 4.131,-9.389 9.389,-9.389l81.683,0c5.258,0 9.389,4.319 9.577,9.577l0,63.281c-21.407,2.254 -36.805,21.407 -34.551,42.626c0.375,4.131 1.502,8.074 3.192,11.83l-59.901,0c-5.258,0 -9.389,-4.319 -9.389,-9.389Zm104.78,23.097c-16.337,0 -29.481,-13.145 -29.481,-29.482c0,-16.336 13.144,-29.481 29.481,-29.481l0.376,0c16.336,0.188 29.293,13.708 29.105,30.045c-0.188,15.961 -13.332,28.918 -29.481,28.918Z" style="fill:#365dfd;fill-rule:nonzero;"/></g><rect id="Rectangle_39" x="0" y="0" width="169" height="169" style="fill:none;"/></g></g></svg>