<?xml version="1.0" encoding="UTF-8" standalone="no"?><!DOCTYPE svg PUBLIC "-//W3C//DTD SVG 1.1//EN" "http://www.w3.org/Graphics/SVG/1.1/DTD/svg11.dtd"><svg width="100%" height="100%" viewBox="0 0 375 376" version="1.1" xmlns="http://www.w3.org/2000/svg" xmlns:xlink="http://www.w3.org/1999/xlink" xml:space="preserve" xmlns:serif="http://www.serif.com/" style="fill-rule:evenodd;clip-rule:evenodd;stroke-linejoin:round;stroke-miterlimit:2;"><rect id="Artboard1" x="0" y="0" width="374.021" height="375.016" style="fill:none;"/><clipPath id="_clip1"><rect x="0" y="0" width="374.021" height="375.016"/></clipPath><g clip-path="url(#_clip1)"><g id="Group_1367"><rect id="Rectangle_36" x="0" y="0" width="200" height="200" style="fill:none;"/><g id="clicking"><path id="Path_18" d="M93.16,99.542c5.971,-0.963 10.017,-6.742 9.054,-12.714c-5.394,-30.052 14.833,-58.755 44.884,-63.956c30.052,-5.201 58.755,14.833 63.957,45.078c1.155,6.164 1.155,12.521 0,18.878c-0.964,5.972 3.082,11.558 9.054,12.522c5.971,0.963 11.558,-3.083 12.521,-8.862c7.32,-42.188 -20.997,-82.257 -62.993,-89.384c-41.995,-7.128 -82.064,20.997 -89.384,63.185c-1.541,8.669 -1.541,17.531 0,26.199c1.156,5.972 6.742,10.017 12.907,9.054Z" style="fill:#fff;fill-rule:nonzero;"/><path id="Path_19" d="M273.47,176.405c-8.091,-16.181 -27.74,-22.731 -43.922,-14.64c-7.513,-14.641 -24.658,-21.576 -40.262,-16.182l0,-67.424c0,-17.915 -14.255,-32.748 -32.17,-33.519c-18.301,-0.578 -33.327,13.87 -33.905,31.978l0,170.293l-12.907,-13.485c-12.328,-12.906 -32.748,-13.87 -46.233,-2.119c-13.485,12.137 -14.64,32.942 -2.504,46.619c0.192,0.193 0.385,0.385 0.578,0.578l74.166,79.174c10.402,10.981 24.85,17.338 40.069,17.338l89.577,0c30.437,0 54.902,-24.658 54.902,-54.902l0,-114.235c0,-18.301 -14.833,-32.941 -33.134,-32.941c-4.816,0 -9.632,1.156 -14.255,3.467Zm25.621,143.902c0,18.108 -14.834,32.941 -32.942,32.941l-89.577,0c-9.054,0 -17.723,-3.853 -24.08,-10.403c-0.192,-0.192 -73.973,-78.982 -74.358,-79.174c-4.238,-4.431 -4.046,-11.366 0.385,-15.604l0.193,-0.193c4.623,-3.852 11.558,-3.467 15.603,0.963l31.786,33.327c4.238,4.431 11.173,4.623 15.604,0.385c2.119,-2.119 3.467,-5.008 3.467,-7.898l0,-196.877c0,-6.164 5.009,-10.98 10.981,-10.98l0.385,0c6.164,0.385 10.788,5.394 10.788,11.365c0,120.978 -0.193,66.076 -0.193,131.38c0,6.165 5.009,11.173 11.173,11.173c6.164,0 11.173,-5.008 11.173,-11.173l0,-35.06c1.156,-5.972 6.935,-9.825 12.907,-8.669c5.201,0.963 8.861,5.587 8.861,10.788l0,32.941c0,6.165 5.009,10.981 10.981,10.981c5.971,0 10.98,-5.009 10.98,-10.981l0,-18.301c0,-6.164 5.009,-10.98 10.981,-10.98c6.164,0 10.98,5.009 10.98,10.98l0,18.301c0,6.165 5.009,10.981 10.98,10.981c5.972,0 10.981,-5.009 10.981,-10.981l0,-3.66c0,-6.164 5.008,-10.98 10.98,-10.98c6.165,0 10.981,5.008 10.981,10.98l0,114.428Z" style="fill:#fff;fill-rule:nonzero;"/></g></g></g></svg>