<?xml version="1.0" encoding="UTF-8" standalone="no"?><!DOCTYPE svg PUBLIC "-//W3C//DTD SVG 1.1//EN" "http://www.w3.org/Graphics/SVG/1.1/DTD/svg11.dtd"><svg width="100%" height="100%" viewBox="0 0 169 169" version="1.1" xmlns="http://www.w3.org/2000/svg" xmlns:xlink="http://www.w3.org/1999/xlink" xml:space="preserve" xmlns:serif="http://www.serif.com/" style="fill-rule:evenodd;clip-rule:evenodd;stroke-linejoin:round;stroke-miterlimit:2;"><rect id="Artboard1" x="0" y="0" width="169" height="169" style="fill:none;"/><clipPath id="_clip1"><rect x="0" y="0" width="169" height="169"/></clipPath><g clip-path="url(#_clip1)"><g id="Group_1363"><rect id="Rectangle_40" x="0" y="0" width="168" height="169" style="fill:none;"/><g id="Group_1358"><path id="Path_2522" d="M104.022,52.59l-68.507,0c-2.426,0 -4.48,-2.24 -4.293,-4.667c0.187,-2.24 2.053,-4.107 4.293,-4.293l68.694,0c2.426,0 4.293,2.053 4.293,4.48c0,2.426 -1.867,4.48 -4.48,4.48Z" style="fill:#365dfd;fill-rule:nonzero;"/><path id="Path_2523" d="M80.502,90.927l-44.8,0c-2.427,0 -4.48,-1.866 -4.48,-4.48c0,-2.613 2.053,-4.48 4.48,-4.48l44.613,0c2.427,0 4.48,2.054 4.48,4.48c0,2.427 -1.866,4.48 -4.293,4.48Z" style="fill:#365dfd;fill-rule:nonzero;"/><path id="Path_2525" d="M159.514,22.967c-2.613,-2.613 -6.16,-4.293 -9.893,-4.293c-2.054,0 -4.294,0.56 -6.16,1.493c-3.174,-7.093 -11.76,-7.093 -11.76,-7.093l-115.174,0c-12.32,0 -12.88,12.88 -12.88,12.88l0,124.693c0,1.867 1.494,3.174 3.174,3.174c0.746,0 1.493,-0.374 2.24,-0.934l30.053,-30.053c0.56,-0.56 1.307,-0.933 2.24,-0.933l89.973,0c12.507,0 12.88,-12.88 12.88,-12.88l0,-49.84l15.12,-15.307c0.187,0.187 10.267,-10.64 0.187,-20.907Zm-50.587,60.854l-12.693,2.426l2.613,-12.506l35.094,-35.094l9.893,9.894l-34.907,35.28Zm26.507,24.826c-0.187,0.934 -0.373,1.68 -0.747,2.614c-0.373,0.746 -0.746,1.493 -2.986,1.493l-90.16,0c-3.174,0 -6.347,1.307 -8.587,3.547l-20.16,20.16l0,-110.32c0.187,-0.934 0.373,-1.68 0.747,-2.614c0.56,-0.933 0.933,-1.493 2.986,-1.493l114.8,0c3.92,0.187 3.92,2.613 3.92,3.733l0,0.374l-36.4,36.773l-0.373,0l-62.72,0c-2.427,0 -4.48,2.053 -4.48,4.48c0,2.427 2.053,4.48 4.48,4.48l55.44,0l-2.613,18.48c-0.374,1.867 0.933,3.547 2.8,3.733l1.12,0l19.226,-2.8c0.747,-0.186 1.307,-0.373 1.867,-0.933l21.84,-22.027l0,40.32Zm19.787,-71.12l-5.787,5.6l-9.893,-9.893l5.6,-5.6c1.306,-1.307 3.173,-2.053 5.04,-2.053c1.866,0 3.733,0.746 5.04,2.053c2.8,2.613 2.8,7.093 0,9.893Z" style="fill:#365dfd;fill-rule:nonzero;"/></g></g></g></svg>