<?xml version="1.0" encoding="UTF-8" standalone="no"?><!DOCTYPE svg PUBLIC "-//W3C//DTD SVG 1.1//EN" "http://www.w3.org/Graphics/SVG/1.1/DTD/svg11.dtd"><svg width="100%" height="100%" viewBox="0 0 1414 596" version="1.1" xmlns="http://www.w3.org/2000/svg" xmlns:xlink="http://www.w3.org/1999/xlink" xml:space="preserve" xmlns:serif="http://www.serif.com/" style="fill-rule:evenodd;clip-rule:evenodd;stroke-linejoin:round;stroke-miterlimit:2;"><rect id="Artboard1" x="0" y="0" width="1413.36" height="595.582" style="fill:none;"/><clipPath id="_clip1"><rect x="0" y="0" width="1413.36" height="595.582"/></clipPath><g clip-path="url(#_clip1)"><g id="Layer-1" serif:id="Layer 1"><g><path d="M223.642,158.093l9.854,-44.346c0,0 -81.3,-12.319 -189.702,0c-14.781,9.854 -28.413,110.522 -24.636,110.865c44.346,7.391 86.228,9.855 135.502,12.318l-2.464,19.709c-44.658,1.108 -88.692,2.464 -140.429,0l-11.451,45.541c68.115,8.66 137.097,3.732 193.763,-1.194c7.39,-17.247 22.172,-59.129 24.636,-108.402c-34.491,-9.855 -76.374,-12.319 -134.174,-15.486l0.169,-14.691c30.531,-9.242 94.448,-8.547 138.932,-4.314" style="fill:#fff;"/><path d="M248.278,300.985c9.854,-76.374 24.637,-128.111 39.419,-182.312c86.228,-19.709 183.094,-10.832 212.657,-0.977c-8.173,62.569 -22.955,129.088 -42.665,183.289c-121.857,9.012 -165.569,4.285 -209.411,0m91.156,-135.502c34.491,-4.927 68.983,-2.464 86.228,2.464c-2.464,32.028 -7.391,61.592 -17.245,78.837c-19.71,2.464 -54.201,7.391 -86.229,-2.464c4.928,-36.955 10.792,-52.955 17.246,-78.837" style="fill:#fff;"/><path d="M531.601,113.747l88.691,0c-9.034,45.167 -18.066,90.335 -27.1,135.501c24.637,2.464 46.51,0.744 68.982,-2.463c0.822,-4.928 1.644,-12.318 2.464,-17.246l61.592,0c-4.927,24.637 -12.318,51.737 -22.173,73.911c-59.128,4.926 -118.256,2.463 -177.384,0l29.564,-157.676l-24.636,-32.027Z" style="fill:#fff;"/><path d="M753.33,113.747c32.027,0 62.518,1.421 94.546,1.421c-9.856,45.167 -18.173,88.914 -28.027,134.08c33.784,5.099 58.543,1.084 83.764,-2.463c9.855,-44.346 19.709,-88.692 29.565,-133.038l61.59,0c-11.895,60.889 -23.523,121.785 -46.809,182.311c-68.983,19.71 -142.893,9.855 -197.093,-2.464c9.033,-49.273 18.067,-98.546 27.101,-147.82c-8.213,-10.675 -16.425,-21.352 -24.637,-32.027" style="fill:#fff;"/><path d="M497.108,399.532c73.91,-7.392 152.747,-4.928 209.411,0c-4.106,19.709 -8.929,39.418 -13.035,59.127l-75.656,0c-9.034,44.347 -18.067,88.692 -27.1,133.039l-61.592,0c9.855,-43.526 19.709,-87.05 29.564,-130.575c-14.244,-1.265 -48.178,-3.441 -76.374,2.464c4.928,-21.352 9.855,-42.703 14.782,-64.055" style="fill:#fff;"/><path d="M694.067,596l81.436,-161.977c-8.212,-10.675 -16.425,-21.352 -24.637,-32.028c64.055,-4.927 123.183,-4.927 165.065,0l16.191,194.005l-58.927,0l-1.609,-26.476l-103.475,0l-12.341,24.909l-61.703,1.567Zm106.072,-85.604l27.1,-54.2l34.492,0l4.927,56.664l-66.519,-2.464Z" style="fill:#fff;"/><path d="M967.67,404.459l27.1,32.027l-36.955,155.212l59.127,0l29.565,-135.502l91.155,0l-12.317,41.882l-81.302,0l56.665,93.62l76.373,0l-27.1,-49.274l27.1,0c12.318,-29.564 24.637,-81.301 27.101,-133.037c-71.447,-7.392 -152.748,-12.319 -236.512,-4.928" style="fill:#fff;"/><path d="M451.921,443.543l9.855,-44.346c0,0 -81.301,-12.319 -189.703,0c-14.782,9.855 -28.413,110.522 -24.636,110.865c44.346,7.39 86.228,9.854 135.502,12.318l-2.464,19.709c-44.658,1.108 -88.692,2.464 -140.429,0l-11.451,45.541c68.115,8.66 137.098,3.732 193.763,-1.194c7.39,-17.247 22.172,-59.128 24.635,-108.402c-34.491,-9.854 -76.373,-12.318 -134.173,-15.485l0.169,-14.693c30.531,-9.241 94.448,-8.546 138.932,-4.313" style="fill:#fff;"/><path d="M1098.47,183l1.192,-18.623c0,0 32.526,13.216 93.537,29.903c-43.804,0.652 -94.729,-11.28 -94.729,-11.28" style="fill:#fff;"/><path d="M1039.03,117.62l24.11,-2.382c30.68,19.728 91.465,50.908 103.099,56.358c-42.208,-13.517 -77.57,-26.511 -127.209,-53.976" style="fill:#fff;"/><path d="M1030.88,206.531l6.126,-14.862c0,0 131.388,6.06 141.06,6.388c-66.582,7.863 -147.186,8.474 -147.186,8.474" style="fill:#fff;"/><path d="M1090.46,49.436l19.816,0.522c23.293,35.635 50.757,71.268 76.135,106.903c-31.815,-34.169 -65.27,-66.402 -95.951,-107.425" style="fill:#fff;"/><path d="M1154.6,78.639c7.666,2.282 15.331,4.565 22.997,6.847c8.17,25.379 14.515,50.757 24.51,76.135c-17.797,-25.095 -33.552,-51.513 -47.507,-82.982" style="fill:#fff;"/><path d="M1162.42,0.418l19.295,18.773l21.121,121.764l-40.416,-140.537Z" style="fill:#fff;"/><path d="M1270.89,62.213l-38.328,94.908l46.412,-62.838l-8.084,-32.07Z" style="fill:#fff;"/><path d="M1239.6,168.855l68.835,-68.835l11.993,15.123l-80.828,53.712Z" style="fill:#fff;"/><path d="M1408.56,193.365l4.434,-13.038l-128.154,7.302l123.72,5.736Z" style="fill:#fff;"/><path d="M1344.94,221.085l3.824,-18.377c-19.165,-4.303 -54.299,-7.528 -85.699,-8.301c27.553,7.329 57.713,17.784 81.875,26.678" style="fill:#fff;"/><path d="M1262.02,230.389l93.865,104.295l-19.553,0.783l-74.312,-105.078Z" style="fill:#fff;"/><path d="M1245.86,224.131l47.974,81.872l-25.031,-2.086l-22.943,-79.786Z" style="fill:#fff;"/><path d="M1239.86,241.605l45.106,141.059l-20.858,-17.731l-24.248,-123.328Z" style="fill:#fff;"/><path d="M1177.54,322.433l-9.762,-26.319l47.441,-66.764l-37.679,93.083Z" style="fill:#fff;"/><path d="M1126.05,269.313l13.032,15.182l66.618,-65.576l-79.65,50.394Z" style="fill:#fff;"/><path d="M1362.03,119.169l0,-29.412l-10.981,0l0,-3.914l26.389,0l0,3.914l-10.987,0l0,29.412l-4.421,0Z" style="fill:#fff;fill-rule:nonzero;"/><path d="M1381.89,119.169l0,-33.326l6.613,0l7.878,23.594c0.733,2.192 1.26,3.836 1.593,4.932c0.379,-1.214 0.974,-2.996 1.783,-5.347l8.021,-23.179l5.901,0l0,33.326l-4.236,0l0.001,-27.88l-9.727,27.88l-3.971,0l-9.619,-28.388l0,28.388l-4.236,0l-0.001,0Z" style="fill:#fff;fill-rule:nonzero;"/></g></g></g></svg>