<?xml version="1.0" encoding="UTF-8" standalone="no"?><!DOCTYPE svg PUBLIC "-//W3C//DTD SVG 1.1//EN" "http://www.w3.org/Graphics/SVG/1.1/DTD/svg11.dtd"><svg width="100%" height="100%" viewBox="0 0 169 169" version="1.1" xmlns="http://www.w3.org/2000/svg" xmlns:xlink="http://www.w3.org/1999/xlink" xml:space="preserve" xmlns:serif="http://www.serif.com/" style="fill-rule:evenodd;clip-rule:evenodd;stroke-linejoin:round;stroke-miterlimit:2;"><rect id="Artboard1" x="0" y="0" width="169" height="169" style="fill:none;"/><clipPath id="_clip1"><rect x="0" y="0" width="169" height="169"/></clipPath><g clip-path="url(#_clip1)"><g id="Group_118"><g id="play-button_1_"><path id="Path_123" d="M154.07,44.246c-22.158,-38.494 -71.356,-51.639 -109.85,-29.293c-18.402,10.703 -31.922,28.166 -37.556,48.822c-11.454,42.813 13.896,86.941 56.897,98.583c6.76,1.878 13.895,2.817 21.031,2.817c44.503,0 80.369,-36.241 80.369,-80.557c0,-14.271 -3.756,-28.166 -10.891,-40.372Zm0,58.962c-10.328,38.495 -49.761,61.216 -88.256,50.888c-18.402,-4.882 -34.175,-17.088 -43.752,-33.612c-19.904,-34.363 -8.074,-78.491 26.477,-98.396c10.891,-6.196 23.284,-9.576 35.865,-9.576c6.385,0 12.581,0.751 18.778,2.441c38.307,10.328 61.216,49.761 50.888,88.255Z" style="fill:#365dfd;fill-rule:nonzero;"/><path id="Path_124" d="M123.006,76.869l-51.639,-29.857c-4.131,-2.441 -9.577,-0.939 -12.018,3.192c-0.751,1.315 -1.127,3.005 -1.127,4.507l0,59.713c0,4.882 3.944,8.826 8.638,8.826c1.502,0 3.005,-0.376 4.507,-1.127l51.639,-29.857c4.131,-2.441 5.633,-7.698 3.192,-12.017c-0.751,-1.503 -1.878,-2.629 -3.192,-3.38Zm-4.131,8.074l-51.639,29.857c-0.188,0.188 -0.376,0 -0.564,-0.188l0,-0.188l0,-59.713c0,-0.188 0,-0.188 0.188,-0.376l0.376,0l51.639,29.857c0.187,0 0.187,0.376 0,0.751c0.187,-0.188 0,-0.188 0,0Z" style="fill:#365dfd;fill-rule:nonzero;"/></g><rect id="Rectangle_41" x="0" y="0" width="169" height="169" style="fill:none;"/></g></g></svg>